<mxfile host="app.diagrams.net" agent="Mozilla/5.0 (Windows NT 10.0; Win64; x64) AppleWebKit/537.36 (KHTML, like Gecko) Chrome/138.0.0.0 Safari/537.36 Edg/138.0.0.0" version="27.2.0">
  <diagram name="第 1 页" id="J1sM0HiZ8hq9JdJ6PQc5">
    <mxGraphModel dx="1971" dy="1118" grid="1" gridSize="10" guides="1" tooltips="1" connect="1" arrows="1" fold="1" page="1" pageScale="1" pageWidth="827" pageHeight="1169" math="0" shadow="0">
      <root>
        <mxCell id="0" />
        <mxCell id="1" parent="0" />
        <mxCell id="DNd9FFHzy0yA6z4T41ld-1" value="" style="rounded=1;whiteSpace=wrap;html=1;" vertex="1" parent="1">
          <mxGeometry x="200" y="550" width="920" height="510" as="geometry" />
        </mxCell>
        <mxCell id="DNd9FFHzy0yA6z4T41ld-14" style="edgeStyle=orthogonalEdgeStyle;rounded=0;orthogonalLoop=1;jettySize=auto;html=1;exitX=0;exitY=0.5;exitDx=0;exitDy=0;entryX=0;entryY=0.5;entryDx=0;entryDy=0;curved=1;" edge="1" parent="1" source="DNd9FFHzy0yA6z4T41ld-2" target="DNd9FFHzy0yA6z4T41ld-3">
          <mxGeometry relative="1" as="geometry">
            <Array as="points">
              <mxPoint x="260" y="710" />
              <mxPoint x="260" y="930" />
            </Array>
          </mxGeometry>
        </mxCell>
        <mxCell id="DNd9FFHzy0yA6z4T41ld-2" value="&lt;font style=&quot;font-size: 21px;&quot;&gt;外挂分析&lt;/font&gt;" style="rounded=1;whiteSpace=wrap;html=1;" vertex="1" parent="1">
          <mxGeometry x="370" y="680" width="120" height="60" as="geometry" />
        </mxCell>
        <mxCell id="DNd9FFHzy0yA6z4T41ld-15" style="edgeStyle=orthogonalEdgeStyle;rounded=0;orthogonalLoop=1;jettySize=auto;html=1;exitX=1;exitY=0.5;exitDx=0;exitDy=0;entryX=0.5;entryY=1;entryDx=0;entryDy=0;curved=1;" edge="1" parent="1" source="DNd9FFHzy0yA6z4T41ld-3" target="DNd9FFHzy0yA6z4T41ld-6">
          <mxGeometry relative="1" as="geometry" />
        </mxCell>
        <mxCell id="DNd9FFHzy0yA6z4T41ld-3" value="&lt;font style=&quot;font-size: 21px;&quot;&gt;完善策略&lt;/font&gt;" style="rounded=1;whiteSpace=wrap;html=1;" vertex="1" parent="1">
          <mxGeometry x="380" y="900" width="120" height="60" as="geometry" />
        </mxCell>
        <mxCell id="DNd9FFHzy0yA6z4T41ld-4" value="" style="endArrow=none;html=1;rounded=0;entryX=0.5;entryY=0;entryDx=0;entryDy=0;exitX=0.5;exitY=1;exitDx=0;exitDy=0;" edge="1" parent="1" source="DNd9FFHzy0yA6z4T41ld-1" target="DNd9FFHzy0yA6z4T41ld-1">
          <mxGeometry width="50" height="50" relative="1" as="geometry">
            <mxPoint x="560" y="980" as="sourcePoint" />
            <mxPoint x="500" y="480" as="targetPoint" />
          </mxGeometry>
        </mxCell>
        <mxCell id="DNd9FFHzy0yA6z4T41ld-16" style="edgeStyle=orthogonalEdgeStyle;rounded=0;orthogonalLoop=1;jettySize=auto;html=1;exitX=0.5;exitY=0;exitDx=0;exitDy=0;entryX=1;entryY=0.5;entryDx=0;entryDy=0;curved=1;" edge="1" parent="1" source="DNd9FFHzy0yA6z4T41ld-6" target="DNd9FFHzy0yA6z4T41ld-2">
          <mxGeometry relative="1" as="geometry" />
        </mxCell>
        <mxCell id="DNd9FFHzy0yA6z4T41ld-19" style="edgeStyle=orthogonalEdgeStyle;rounded=0;orthogonalLoop=1;jettySize=auto;html=1;exitX=0.5;exitY=0;exitDx=0;exitDy=0;entryX=0;entryY=0.5;entryDx=0;entryDy=0;curved=1;" edge="1" parent="1" source="DNd9FFHzy0yA6z4T41ld-6" target="DNd9FFHzy0yA6z4T41ld-8">
          <mxGeometry relative="1" as="geometry" />
        </mxCell>
        <mxCell id="DNd9FFHzy0yA6z4T41ld-20" style="edgeStyle=orthogonalEdgeStyle;rounded=0;orthogonalLoop=1;jettySize=auto;html=1;exitX=0.5;exitY=0;exitDx=0;exitDy=0;entryX=0;entryY=0.5;entryDx=0;entryDy=0;curved=1;" edge="1" parent="1" source="DNd9FFHzy0yA6z4T41ld-6" target="DNd9FFHzy0yA6z4T41ld-9">
          <mxGeometry relative="1" as="geometry" />
        </mxCell>
        <mxCell id="DNd9FFHzy0yA6z4T41ld-21" style="edgeStyle=orthogonalEdgeStyle;rounded=0;orthogonalLoop=1;jettySize=auto;html=1;exitX=0.5;exitY=1;exitDx=0;exitDy=0;entryX=0;entryY=0.5;entryDx=0;entryDy=0;curved=1;" edge="1" parent="1" source="DNd9FFHzy0yA6z4T41ld-6" target="DNd9FFHzy0yA6z4T41ld-10">
          <mxGeometry relative="1" as="geometry" />
        </mxCell>
        <mxCell id="DNd9FFHzy0yA6z4T41ld-6" value="&lt;span style=&quot;font-size: 21px;&quot;&gt;编写特征&lt;/span&gt;" style="rounded=1;whiteSpace=wrap;html=1;" vertex="1" parent="1">
          <mxGeometry x="600" y="790" width="120" height="60" as="geometry" />
        </mxCell>
        <mxCell id="DNd9FFHzy0yA6z4T41ld-8" value="&lt;div&gt;&lt;span style=&quot;font-size: 21px;&quot;&gt;模拟器进程内注入外挂扫描方案&amp;nbsp;&lt;/span&gt;&lt;/div&gt;" style="rounded=1;whiteSpace=wrap;html=1;" vertex="1" parent="1">
          <mxGeometry x="730" y="610" width="320" height="60" as="geometry" />
        </mxCell>
        <mxCell id="DNd9FFHzy0yA6z4T41ld-9" value="&lt;div&gt;&lt;div&gt;&lt;span style=&quot;font-size: 21px;&quot;&gt;内核shellcode扫描方案&lt;/span&gt;&lt;/div&gt;&lt;/div&gt;" style="rounded=1;whiteSpace=wrap;html=1;" vertex="1" parent="1">
          <mxGeometry x="730" y="700" width="320" height="60" as="geometry" />
        </mxCell>
        <mxCell id="DNd9FFHzy0yA6z4T41ld-10" value="&lt;div&gt;&lt;span style=&quot;font-size: 21px;&quot;&gt;基于日志的样本挖掘和云查方案&lt;/span&gt;&lt;/div&gt;" style="rounded=1;whiteSpace=wrap;html=1;" vertex="1" parent="1">
          <mxGeometry x="750" y="880" width="320" height="60" as="geometry" />
        </mxCell>
        <mxCell id="DNd9FFHzy0yA6z4T41ld-17" value="&lt;font style=&quot;font-size: 21px;&quot;&gt;安全运营&lt;/font&gt;" style="text;html=1;align=center;verticalAlign=middle;resizable=0;points=[];autosize=1;strokeColor=none;fillColor=none;" vertex="1" parent="1">
          <mxGeometry x="380" y="800" width="110" height="40" as="geometry" />
        </mxCell>
        <mxCell id="DNd9FFHzy0yA6z4T41ld-18" value="&lt;font style=&quot;font-size: 21px;&quot;&gt;方案建设&lt;/font&gt;" style="text;html=1;align=center;verticalAlign=middle;resizable=0;points=[];autosize=1;strokeColor=none;fillColor=none;" vertex="1" parent="1">
          <mxGeometry x="855" y="810" width="110" height="40" as="geometry" />
        </mxCell>
      </root>
    </mxGraphModel>
  </diagram>
</mxfile>
